<svg width="240" height="240" viewBox="0 0 240 240" fill="none" xmlns="http://www.w3.org/2000/svg">
<path fill-rule="evenodd" clip-rule="evenodd" d="M194.969 97.5987C194.99 96.9731 195 96.3449 195 95.7143C195 64.9441 170.152 40 139.5 40C115.185 40 94.5218 55.6968 87.0176 77.5468C81.6283 74.7236 75.4999 73.1274 69 73.1274C47.4609 73.1274 30 90.6557 30 112.278C30 126.587 37.6472 139.104 49.0627 145.933C49.1908 144.928 49.5171 143.932 50.0564 143C52.229 139.247 57.0481 137.957 60.8061 140.121C60.8061 140.121 60.95 140.273 62.479 141.042C64.901 139.396 68.1516 139.169 70.8571 140.727C73.5714 142.29 74.9992 145.219 74.7718 148.141C75.6776 148.782 78.2304 150.327 80.0741 151.429H82.1217C82.1173 149.413 82.1162 145.455 82.1699 143.946C79.4859 142.694 77.6256 139.977 77.6256 136.829C77.6256 133.693 79.4677 130.988 82.1323 129.729C82.1448 128.011 82.1254 127.845 82.1254 127.845C82.1254 123.51 85.6567 120 90 120C94.3453 120 97.8746 123.517 97.8746 127.845C97.8746 127.845 97.8955 128.348 97.8566 129.725C100.526 130.982 102.374 133.692 102.374 136.829C102.374 139.93 100.574 142.609 97.958 143.886C97.9074 144.679 97.8858 149.213 97.8782 151.429H99.8827C101.749 150.297 104.366 148.712 105.234 148.194C104.986 145.255 106.415 142.298 109.143 140.727C111.839 139.174 115.072 139.392 117.49 141.019C119.018 140.257 119.194 140.121 119.194 140.121C122.958 137.954 127.772 139.249 129.944 143C131.521 145.726 131.273 149.007 129.58 151.429H137.892L138.615 148.816L150.662 105.28L150.719 105.076C151.198 103.343 152.776 102.143 154.574 102.143H154.895H184.465H184.941C187.752 102.143 189.686 104.966 188.671 107.587L188.569 107.852L181.578 126.506C181.333 127.16 181.816 127.857 182.514 127.857H191.25H191.81C194.633 127.857 196.379 130.933 194.933 133.357L185.454 151.155C199.322 149.223 210 137.273 210 122.818C210 111.908 203.917 102.424 194.969 97.5987Z" fill="white"/>
<path fill-rule="evenodd" clip-rule="evenodd" d="M156.891 107.5C155.986 107.5 155.194 108.108 154.96 108.982L144.247 148.91C143.906 150.181 144.864 151.429 146.179 151.429H160.605C161.803 151.429 162.733 152.475 162.591 153.665L158.884 184.802C158.618 187.036 161.673 187.94 162.665 185.92L187.155 136.097C187.808 134.768 186.841 133.214 185.36 133.214H176.458C175.061 133.214 174.095 131.82 174.585 130.512L182.201 110.202C182.691 108.895 181.725 107.5 180.328 107.5H156.891Z" fill="#FFF686"/>
<path fill-rule="evenodd" clip-rule="evenodd" d="M86.731 190.869V140.917H85.6449C83.8373 140.917 82.372 139.455 82.372 137.659C82.372 135.86 83.8348 134.402 85.6449 134.402H86.731V128.964C86.731 127.169 88.1983 125.714 90.0002 125.714C91.8057 125.714 93.2694 127.178 93.2694 128.964V134.402H94.3555C96.163 134.402 97.6284 135.864 97.6284 137.659C97.6284 139.459 96.1655 140.917 94.3555 140.917H93.2694V190.869H94.3555C96.163 190.869 97.6284 192.331 97.6284 194.127C97.6284 195.926 96.1655 197.384 94.3555 197.384H93.2694V202.822C93.2694 204.617 91.802 206.071 90.0002 206.071C88.1946 206.071 86.731 204.608 86.731 202.822V197.384H85.6449C83.8373 197.384 82.372 195.922 82.372 194.127C82.372 192.327 83.8348 190.869 85.6449 190.869H86.731Z" fill="white"/>
<path fill-rule="evenodd" clip-rule="evenodd" d="M69.9287 150.584L113.341 175.56L113.884 174.622C114.788 173.062 116.791 172.529 118.352 173.427C119.915 174.326 120.451 176.318 119.546 177.88L119.003 178.817L123.729 181.536C125.289 182.433 125.82 184.427 124.919 185.982C124.016 187.54 122.012 188.072 120.46 187.179L115.734 184.46L115.191 185.397C114.287 186.957 112.284 187.49 110.723 186.593C109.16 185.693 108.624 183.701 109.529 182.139L110.072 181.202L66.6595 156.226L66.1165 157.164C65.2127 158.723 63.2093 159.257 61.6488 158.359C60.0852 157.459 59.549 155.468 60.454 153.906L60.9971 152.969L56.2713 150.25C54.7115 149.352 54.1808 147.359 55.0817 145.804C55.9845 144.245 57.9881 143.714 59.5405 144.607L64.2663 147.326L64.8093 146.389C65.7131 144.829 67.7165 144.295 69.277 145.193C70.8406 146.093 71.3768 148.084 70.4718 149.646L69.9287 150.584Z" fill="white"/>
<path fill-rule="evenodd" clip-rule="evenodd" d="M113.341 156.226L69.9287 181.202L70.4717 182.139C71.3755 183.699 70.8374 185.695 69.2769 186.593C67.7133 187.492 65.7143 186.959 64.8093 185.397L64.2662 184.46L59.5405 187.179C57.9807 188.076 55.9826 187.537 55.0817 185.982C54.1789 184.424 54.7188 182.429 56.2712 181.536L60.997 178.817L60.454 177.88C59.5502 176.32 60.0883 174.325 61.6487 173.427C63.2124 172.527 65.2114 173.06 66.1164 174.622L66.6595 175.56L110.072 150.584L109.529 149.646C108.625 148.087 109.163 146.091 110.723 145.193C112.287 144.294 114.286 144.827 115.191 146.389L115.734 147.326L120.46 144.607C122.02 143.71 124.018 144.249 124.919 145.804C125.821 147.362 125.281 149.357 123.729 150.25L119.003 152.969L119.546 153.906C120.45 155.466 119.912 157.461 118.352 158.359C116.788 159.259 114.789 158.726 113.884 157.164L113.341 156.226Z" fill="white"/>
</svg>
